{"title":"Michel Petrucciani (Michael Radford, 2011)","uid":9780897,"size":1315363645,"categoryP":"video","categoryS":"movies","magnet":"?xt=urn:btih:c997846fb3680047d9b950a7d160d8ca63a35ea7&amp;dn=Michel+Petrucciani+%28Michael+Radford%2C+2011%29&amp;tr=udp%3A%2F%2Ftracker.openbittorrent.com%3A80&amp;tr=udp%3A%2F%2Fopen.demonii.com%3A1337&amp;tr=udp%3A%2F%2Ftracker.coppersurfer.tk%3A6969&amp;tr=udp%3A%2F%2Fexodus.desync.com%3A6969","seeders":2,"leechers":1,"uploader":"Bazzaa56","files":-1,"time":1395098671,"description":"Synopsis:\n\nSuffering from brittle-bone disease, Michel Petrucciani overcame his handicap to become an internationally renowned artist. Michael Radford retraces the portrait of this great jazz pianist. What are the sources of his sublime inspiration and how are they expressed?\n\n\nDirected: Michael Radford.\nFrance, 2011.\n\n\n____________________________________________________________________\n\nInformation:\n\n\nMichel.Petrucciani.2011.(English.SpanishSub).DVD-Rip.XviD.laxa.avi\n\n\nFormat                                   : AVI\nFormat/Info                              : Audio Video Interleave\nFile size                                : 1.22 GiB\nDuration                                 : 1h 43mn\nOverall bit rate                         : 1 703 Kbps\nWriting application                      : VirtualDubMod 1.5.10.2 (build 2542/release)\nWriting library                          : VirtualDubMod build 2542/release\n\nVideo\nID                                       : 0\nFormat                                   : MPEG-4 Visual\nFormat profile                           : Advanced Simple@L5\nFormat settings, BVOP                    : 2\nFormat settings, QPel                    : No\nFormat settings, GMC                     : No warppoints\nFormat settings, Matrix                  : Default (H.263)\nCodec ID                                 : XVID\nCodec ID/Hint                            : XviD\nDuration                                 : 1h 43mn\nBit rate                                 : 1 501 Kbps\nWidth                                    : 672 pixels\nHeight                                   : 360 pixels\nDisplay aspect ratio                     : 1.85:1\nFrame rate                               : 25.000 fps\nColor space                              : YUV\nChroma subsampling                       : 4:2:0\nBit depth                                : 8 bits\nScan type                                : Progressive\nCompression mode                         : Lossy\nBits/(Pixel*Frame)                       : 0.248\nStream size                              : 1.08 GiB (88%)\nWriting library                          : XviD 64\n\nAudio\nID                                       : 1\nFormat                                   : MPEG Audio\nFormat version                           : Version 1\nFormat profile                           : Layer 3\nCodec ID                                 : 55\nCodec ID/Hint                            : MP3\nDuration                                 : 1h 43mn\nBit rate mode                            : Constant\nBit rate                                 : 192 Kbps\nChannel count                            : 2 channels\nSampling rate                            : 48.0 KHz\nCompression mode                         : Lossy\nStream size                              : 141 MiB (11%)\nAlignment                                : Split accross interleaves\nInterleave, duration                     : 40 ms (1.00 video frame)\nInterleave, preload duration             : 500 ms\n\n_______________\n\nLanguage: French, English.\n\nSubtitles: Spanish, Portuguese(BR).","torrent":{"xt":"urn:btih:c997846fb3680047d9b950a7d160d8ca63a35ea7","amp;dn":"Michel+Petrucciani+%28Michael+Radford%2C+2011%29","amp;tr":["udp%3A%2F%2Ftracker.openbittorrent.com%3A80","udp%3A%2F%2Fopen.demonii.com%3A1337","udp%3A%2F%2Ftracker.coppersurfer.tk%3A6969","udp%3A%2F%2Fexodus.desync.com%3A6969"],"infoHash":"c997846fb3680047d9b950a7d160d8ca63a35ea7","infoHashBuffer":{"type":"Buffer","data":[201,151,132,111,179,104,0,71,217,185,80,167,209,96,216,202,99,163,94,167]},"announce":[],"urlList":[]}}